<svg width="100" height="100" viewBox="0 0 100 100" fill="none" xmlns="http://www.w3.org/2000/svg">
<path d="M95 50C95 74.8528 74.8528 95 50 95C25.1472 95 5 74.8528 5 50C5 25.1472 25.1472 5 50 5C74.8528 5 95 25.1472 95 50Z" fill="#F5F5F5" stroke="#1A1A1A" stroke-width="10"/>
<path d="M37.918 68.75H28.8477V39.541H37.918V68.75ZM33.3779 35.5566C30.4775 35.5566 28.125 33.1543 28.125 30.2539C28.125 28.8607 28.6784 27.5246 29.6635 26.5395C30.6487 25.5544 31.9848 25.001 33.3779 25.001C34.7711 25.001 36.1072 25.5544 37.0923 26.5395C38.0774 27.5246 38.6309 28.8607 38.6309 30.2539C38.6309 33.1543 36.2773 35.5566 33.3779 35.5566ZM71.8652 68.75H62.8145V54.5312C62.8145 51.1426 62.7461 46.7969 58.0986 46.7969C53.3828 46.7969 52.6602 50.4785 52.6602 54.2871V68.75H43.5996V39.541H52.2988V43.5254H52.4258C53.6367 41.2305 56.5947 38.8086 61.0078 38.8086C70.1875 38.8086 71.875 44.8535 71.875 52.7051V68.75H71.8652Z" fill="#1A1A1A"/>
</svg>
